<?xml version="1.0" encoding="UTF-8" standalone="no"?>
<!DOCTYPE svg PUBLIC "-//W3C//DTD SVG 1.1//EN" "http://www.w3.org/Graphics/SVG/1.1/DTD/svg11.dtd">
<svg width="100%" height="100%" viewBox="0 0 761 739" version="1.1" xmlns="http://www.w3.org/2000/svg" xmlns:xlink="http://www.w3.org/1999/xlink" xml:space="preserve" xmlns:serif="http://www.serif.com/" style="fill-rule:evenodd;clip-rule:evenodd;stroke-linejoin:round;stroke-miterlimit:2;">
    <path d="M361.437,0L392.062,0L392.543,0.109C398.614,1.44 407.5,1.837 413.874,2.544C511.928,13.42 597.124,77.091 646.187,161.13C647.205,162.873 650.324,168.844 651.57,169.62C683.373,189.418 713.442,211.978 743.617,234.174C753.959,241.77 762.053,250.471 760.824,264.337C759.767,276.268 753.847,281.614 745.583,289.494C720.925,313.009 692.394,332.596 662.901,349.551C659.821,351.321 656.761,352.973 653.782,354.902C652.778,357.959 652.01,361.088 651.011,364.118C636.349,408.617 608.243,445.701 579.598,481.996L546.763,523.608L426.79,675.687L393.046,718.437C389.493,722.938 379.762,734.618 377.19,738.824C372.058,731.056 363.028,719.934 357.224,712.304L320.737,664.233L208.76,516.75C199.676,504.769 190.613,492.769 181.464,480.833C177.983,476.291 173.996,472.139 170.489,467.594C147.128,437.332 132.115,400.832 122.272,364.112C121.38,360.787 120.609,357.441 119.922,354.082C95.848,351.233 53.205,315.122 32.383,300.929C26.868,297.169 16.109,288.883 11.494,284C6.427,278.637 3.01,266.932 0,260.339L0,254.157C0.69,252.977 1.473,251.125 2.118,249.809C5.759,242.376 11.601,237.25 17.353,231.462C38.97,209.709 65.484,193.065 90.27,175.192C97.982,169.63 106.322,164.743 113.755,158.849C115.644,156.403 117.404,152.351 118.905,149.702C158.559,79.694 226.594,26.318 305.45,8.459C317.106,5.588 328.822,3.883 340.711,2.373C347.178,1.552 355.174,1.429 361.437,0ZM568.971,150.258C548.859,119.925 507.826,90.151 510.369,96.736C521.693,126.069 521.332,148.852 520.002,180.404C519.587,190.263 518.577,200.316 517.893,210.137C516.028,236.947 512.184,261.703 501.701,286.62C496.825,298.211 491.722,309.321 486.029,320.617C481.029,330.538 476.14,340.757 469.754,349.965C447.828,381.572 414.657,404.253 379.668,419.248C373.276,421.988 367.015,423.82 360.837,426.354C363.506,423.371 370.578,412.734 373.101,408.877C389.589,383.66 409.077,353.843 417.412,324.814C386.721,320.766 359.555,307.388 340.564,282.331C318.675,253.448 311.09,213.239 315.1,177.725C322.839,109.195 367.419,68.636 431.883,58.901C439.146,57.804 405.307,46.982 375.715,48.46C314.245,51.104 259.79,74.368 217.738,119.638C133.528,210.291 139.246,352.561 230.454,436.278C321.292,519.657 462.64,513.292 545.902,422.796C614.719,347.794 624.506,235.518 568.971,150.258ZM86.549,282.843C92.381,287.548 100.078,294.068 106.227,298.198C105.388,291.33 103.516,284.554 102.247,277.759C101.357,272.99 101.482,268.279 101.465,263.471C101.418,250.759 105.643,238.479 105.804,225.837C105.823,224.391 106.267,222.608 106.004,221.24C105.307,220.9 105.21,220.954 104.446,220.936C104.001,221.184 97.333,225.422 97.061,225.669C89.062,232.935 69.515,246.055 65.416,255.218C60.593,266.002 78.998,276.794 86.549,282.843ZM500.09,528.999C501.715,527.654 504.124,525.548 503.952,523.382C502.578,506.148 480.619,523.771 474.627,526.579C464.807,531.353 454.279,535.905 443.906,539.305C419.131,547.423 391.985,549.921 366.116,547.88C335.596,545.471 306.162,536.505 279.247,522.046C272.742,518.551 268.171,514.221 260.389,515.04C258.924,515.954 257.778,516.738 257.511,518.599C256.305,526.978 270.34,532.304 276.191,535.514C338.534,569.712 415.464,572.9 479.054,540.144C486.011,536.561 493.452,533.343 500.09,528.999ZM686.869,283.536C691.872,279.579 703.199,271.195 703.557,264.37C704.287,250.478 685.988,241.374 676.941,233.493C675.329,232.085 669.936,228.171 668.48,227.542C668.147,242.175 670.454,257.588 670.56,272.327C670.604,278.402 667.044,292.833 668.131,297.857L668.428,298.032C669.689,297.289 670.844,296.401 671.985,295.488C676.955,291.513 681.853,287.453 686.869,283.536Z" style="fill-rule:nonzero;"/>
</svg>
