<?xml version="1.0" encoding="UTF-8"?>
<!--Generator: Apple Native CoreSVG 175.5-->
<!DOCTYPE svg
PUBLIC "-//W3C//DTD SVG 1.1//EN"
       "http://www.w3.org/Graphics/SVG/1.1/DTD/svg11.dtd">
<svg version="1.1" xmlns="http://www.w3.org/2000/svg" xmlns:xlink="http://www.w3.org/1999/xlink" width="3300" height="2200">
 <!--glyph: "uni1001FF.medium", point size: 100.0, font version: "18.0d12e2", template writer version: "101"-->
 <g id="Notes">
  <rect height="2200" id="artboard" style="fill:white;opacity:1" width="3300" x="0" y="0"/>
  <line style="fill:none;stroke:black;opacity:1;stroke-width:0.5;" x1="263" x2="3036" y1="292" y2="292"/>
  <text style="stroke:none;fill:black;font-family:sans-serif;font-size:13;font-weight:bold;" transform="matrix(1 0 0 1 263 322)">Weight/Scale Variations</text>
  <text style="stroke:none;fill:black;font-family:sans-serif;font-size:13;text-anchor:middle;" transform="matrix(1 0 0 1 559.711 322)">Ultralight</text>
  <text style="stroke:none;fill:black;font-family:sans-serif;font-size:13;text-anchor:middle;" transform="matrix(1 0 0 1 856.422 322)">Thin</text>
  <text style="stroke:none;fill:black;font-family:sans-serif;font-size:13;text-anchor:middle;" transform="matrix(1 0 0 1 1153.13 322)">Light</text>
  <text style="stroke:none;fill:black;font-family:sans-serif;font-size:13;text-anchor:middle;" transform="matrix(1 0 0 1 1449.84 322)">Regular</text>
  <text style="stroke:none;fill:black;font-family:sans-serif;font-size:13;text-anchor:middle;" transform="matrix(1 0 0 1 1746.56 322)">Medium</text>
  <text style="stroke:none;fill:black;font-family:sans-serif;font-size:13;text-anchor:middle;" transform="matrix(1 0 0 1 2043.27 322)">Semibold</text>
  <text style="stroke:none;fill:black;font-family:sans-serif;font-size:13;text-anchor:middle;" transform="matrix(1 0 0 1 2339.98 322)">Bold</text>
  <text style="stroke:none;fill:black;font-family:sans-serif;font-size:13;text-anchor:middle;" transform="matrix(1 0 0 1 2636.69 322)">Heavy</text>
  <text style="stroke:none;fill:black;font-family:sans-serif;font-size:13;text-anchor:middle;" transform="matrix(1 0 0 1 2933.4 322)">Black</text>
  <line style="fill:none;stroke:black;opacity:1;stroke-width:0.5;" x1="263" x2="3036" y1="1903" y2="1903"/>
  <g transform="matrix(1 0 0 1 263 1933)">
   <path d="M9.24805 0.830078C13.5547 0.830078 17.1387-2.74414 17.1387-7.05078C17.1387-11.3574 13.5449-14.9316 9.23828-14.9316C4.94141-14.9316 1.36719-11.3574 1.36719-7.05078C1.36719-2.74414 4.95117 0.830078 9.24805 0.830078ZM9.24805-0.654297C5.70312-0.654297 2.87109-3.49609 2.87109-7.05078C2.87109-10.6055 5.69336-13.4473 9.23828-13.4473C12.793-13.4473 15.6445-10.6055 15.6445-7.05078C15.6445-3.49609 12.8027-0.654297 9.24805-0.654297ZM5.6543-7.05078C5.6543-6.62109 5.95703-6.32812 6.40625-6.32812L8.50586-6.32812L8.50586-4.20898C8.50586-3.76953 8.79883-3.4668 9.22852-3.4668C9.67773-3.4668 9.9707-3.76953 9.9707-4.20898L9.9707-6.32812L12.0898-6.32812C12.5293-6.32812 12.832-6.62109 12.832-7.05078C12.832-7.49023 12.5293-7.79297 12.0898-7.79297L9.9707-7.79297L9.9707-9.90234C9.9707-10.3516 9.67773-10.6543 9.22852-10.6543C8.79883-10.6543 8.50586-10.3516 8.50586-9.90234L8.50586-7.79297L6.40625-7.79297C5.95703-7.79297 5.6543-7.49023 5.6543-7.05078Z"/>
  </g>
  <g transform="matrix(1 0 0 1 281.867 1933)">
   <path d="M11.709 2.91016C17.1582 2.91016 21.6699-1.61133 21.6699-7.05078C21.6699-12.5 17.1484-17.0117 11.6992-17.0117C6.25977-17.0117 1.74805-12.5 1.74805-7.05078C1.74805-1.61133 6.26953 2.91016 11.709 2.91016ZM11.709 1.25C7.09961 1.25 3.41797-2.44141 3.41797-7.05078C3.41797-11.6602 7.08984-15.3516 11.6992-15.3516C16.3086-15.3516 20.0098-11.6602 20.0098-7.05078C20.0098-2.44141 16.3184 1.25 11.709 1.25ZM7.17773-7.05078C7.17773-6.57227 7.50977-6.25 8.00781-6.25L10.8789-6.25L10.8789-3.36914C10.8789-2.88086 11.2109-2.53906 11.6895-2.53906C12.1777-2.53906 12.5195-2.87109 12.5195-3.36914L12.5195-6.25L15.4004-6.25C15.8887-6.25 16.2305-6.57227 16.2305-7.05078C16.2305-7.53906 15.8887-7.88086 15.4004-7.88086L12.5195-7.88086L12.5195-10.752C12.5195-11.25 12.1777-11.5918 11.6895-11.5918C11.2109-11.5918 10.8789-11.25 10.8789-10.752L10.8789-7.88086L8.00781-7.88086C7.50977-7.88086 7.17773-7.53906 7.17773-7.05078Z"/>
  </g>
  <g transform="matrix(1 0 0 1 305.646 1933)">
   <path d="M14.9707 5.66406C21.9336 5.66406 27.6953-0.0976562 27.6953-7.05078C27.6953-14.0137 21.9238-19.7754 14.9609-19.7754C8.00781-19.7754 2.25586-14.0137 2.25586-7.05078C2.25586-0.0976562 8.01758 5.66406 14.9707 5.66406ZM14.9707 3.84766C8.93555 3.84766 4.08203-1.01562 4.08203-7.05078C4.08203-13.0957 8.92578-17.9492 14.9609-17.9492C21.0059-17.9492 25.8691-13.0957 25.8691-7.05078C25.8691-1.01562 21.0156 3.84766 14.9707 3.84766ZM9.19922-7.05078C9.19922-6.5332 9.57031-6.17188 10.1172-6.17188L14.0625-6.17188L14.0625-2.2168C14.0625-1.67969 14.4336-1.29883 14.9512-1.29883C15.4883-1.29883 15.8594-1.66992 15.8594-2.2168L15.8594-6.17188L19.8145-6.17188C20.3516-6.17188 20.7324-6.5332 20.7324-7.05078C20.7324-7.59766 20.3613-7.96875 19.8145-7.96875L15.8594-7.96875L15.8594-11.9141C15.8594-12.4609 15.4883-12.8418 14.9512-12.8418C14.4336-12.8418 14.0625-12.4609 14.0625-11.9141L14.0625-7.96875L10.1172-7.96875C9.57031-7.96875 9.19922-7.59766 9.19922-7.05078Z"/>
  </g>
  <text style="stroke:none;fill:black;font-family:sans-serif;font-size:13;font-weight:bold;" transform="matrix(1 0 0 1 263 1953)">Design Variations</text>
  <text style="stroke:none;fill:black;font-family:sans-serif;font-size:13;" transform="matrix(1 0 0 1 263 1971)">Symbols are supported in up to nine weights and three scales.</text>
  <text style="stroke:none;fill:black;font-family:sans-serif;font-size:13;" transform="matrix(1 0 0 1 263 1989)">For optimal layout with text and other symbols, vertically align</text>
  <text style="stroke:none;fill:black;font-family:sans-serif;font-size:13;" transform="matrix(1 0 0 1 263 2007)">symbols with the adjacent text.</text>
  <line style="fill:none;stroke:#00AEEF;stroke-width:0.5;opacity:1.0;" x1="776" x2="776" y1="1919" y2="1933"/>
  <g transform="matrix(1 0 0 1 776 1933)">
   <path d="M3.31055 0.15625C3.82812 0.15625 4.08203-0.0390625 4.26758-0.585938L5.52734-4.0332L11.2891-4.0332L12.5488-0.585938C12.7344-0.0390625 12.9883 0.15625 13.4961 0.15625C14.0137 0.15625 14.3457-0.15625 14.3457-0.644531C14.3457-0.810547 14.3164-0.966797 14.2383-1.17188L9.6582-13.3691C9.43359-13.9648 9.0332-14.2676 8.4082-14.2676C7.80273-14.2676 7.39258-13.9746 7.17773-13.3789L2.59766-1.16211C2.51953-0.957031 2.49023-0.800781 2.49023-0.634766C2.49023-0.146484 2.80273 0.15625 3.31055 0.15625ZM6.00586-5.51758L8.37891-12.0898L8.42773-12.0898L10.8008-5.51758Z"/>
  </g>
  <line style="fill:none;stroke:#00AEEF;stroke-width:0.5;opacity:1.0;" x1="793.197" x2="793.197" y1="1919" y2="1933"/>
  <text style="stroke:none;fill:black;font-family:sans-serif;font-size:13;font-weight:bold;" transform="matrix(1 0 0 1 776 1953)">Margins</text>
  <text style="stroke:none;fill:black;font-family:sans-serif;font-size:13;" transform="matrix(1 0 0 1 776 1971)">Leading and trailing margins on the left and right side of each symbol</text>
  <text style="stroke:none;fill:black;font-family:sans-serif;font-size:13;" transform="matrix(1 0 0 1 776 1989)">can be adjusted by modifying the x-location of the margin guidelines.</text>
  <text style="stroke:none;fill:black;font-family:sans-serif;font-size:13;" transform="matrix(1 0 0 1 776 2007)">Modifications are automatically applied proportionally to all</text>
  <text style="stroke:none;fill:black;font-family:sans-serif;font-size:13;" transform="matrix(1 0 0 1 776 2025)">scales and weights.</text>
  <g transform="matrix(1 0 0 1 1289 1933)">
   <path d="M2.8418 1.86523L4.54102 3.57422C5.40039 4.44336 6.38672 4.38477 7.31445 3.35938L18.0078-8.42773L17.041-9.4043L6.42578 2.27539C6.07422 2.67578 5.74219 2.77344 5.27344 2.30469L4.10156 1.14258C3.63281 0.683594 3.74023 0.341797 4.14062-0.0195312L15.6152-10.8203L14.6387-11.7871L3.04688-0.898438C2.06055 0.0195312 1.98242 0.996094 2.8418 1.86523ZM9.25781-16.3281C8.83789-15.918 8.80859-15.3418 9.04297-14.9512C9.27734-14.5898 9.73633-14.3555 10.3809-14.5215C11.8457-14.8633 13.3691-14.9219 14.7949-13.9844L14.209-12.5293C13.8672-11.6992 14.043-11.1133 14.5801-10.5664L16.875-8.25195C17.3633-7.76367 17.7734-7.74414 18.3398-7.8418L19.4043-8.03711L20.0684-7.36328L20.0293-6.80664C19.9902-6.30859 20.1172-5.92773 20.6055-5.44922L21.3672-4.70703C21.8457-4.22852 22.4609-4.19922 22.9297-4.66797L25.8398-7.58789C26.3086-8.05664 26.2891-8.65234 25.8105-9.13086L25.0391-9.89258C24.5605-10.3711 24.1895-10.5273 23.7109-10.4883L23.1348-10.4395L22.4902-11.0742L22.7344-12.1973C22.8613-12.7637 22.7051-13.2031 22.1191-13.7891L19.9219-15.9766C16.582-19.2969 12.1484-19.2188 9.25781-16.3281ZM10.752-15.957C13.1836-17.7344 16.4746-17.4316 18.7012-15.2051L21.1328-12.793C21.3672-12.5586 21.4062-12.373 21.3379-12.0312L21.0156-10.5469L22.5195-9.0625L23.5059-9.12109C23.7598-9.13086 23.8379-9.11133 24.0332-8.91602L24.6094-8.33984L22.168-5.89844L21.5918-6.47461C21.3965-6.66992 21.3672-6.74805 21.377-7.01172L21.4453-7.98828L19.9512-9.47266L18.4277-9.21875C18.1055-9.15039 17.959-9.17969 17.7148-9.41406L15.7129-11.416C15.459-11.6504 15.4297-11.8164 15.5859-12.1875L16.4648-14.2773C14.9023-15.7324 12.8711-16.3574 10.8398-15.7617C10.6836-15.7227 10.625-15.8496 10.752-15.957Z"/>
  </g>
  <text style="stroke:none;fill:black;font-family:sans-serif;font-size:13;font-weight:bold;" transform="matrix(1 0 0 1 1289 1953)">Exporting</text>
  <text style="stroke:none;fill:black;font-family:sans-serif;font-size:13;" transform="matrix(1 0 0 1 1289 1971)">Symbols should be outlined when exporting to ensure the</text>
  <text style="stroke:none;fill:black;font-family:sans-serif;font-size:13;" transform="matrix(1 0 0 1 1289 1989)">design is preserved when submitting to Xcode.</text>
  <text id="template-version" style="stroke:none;fill:black;font-family:sans-serif;font-size:13;text-anchor:end;" transform="matrix(1 0 0 1 3036 1933)">Template v.4.0</text>
  <text style="stroke:none;fill:black;font-family:sans-serif;font-size:13;text-anchor:end;" transform="matrix(1 0 0 1 3036 1951)">Requires Xcode 14 or greater</text>
  <text id="descriptive-name" style="stroke:none;fill:black;font-family:sans-serif;font-size:13;text-anchor:end;" transform="matrix(1 0 0 1 3036 1969)">Generated from exclamationmark.triangle.fill</text>
  <text style="stroke:none;fill:black;font-family:sans-serif;font-size:13;text-anchor:end;" transform="matrix(1 0 0 1 3036 1987)">Typeset at 100 points</text>
  <text style="stroke:none;fill:black;font-family:sans-serif;font-size:13;" transform="matrix(1 0 0 1 263 726)">Small</text>
  <text style="stroke:none;fill:black;font-family:sans-serif;font-size:13;" transform="matrix(1 0 0 1 263 1156)">Medium</text>
  <text style="stroke:none;fill:black;font-family:sans-serif;font-size:13;" transform="matrix(1 0 0 1 263 1586)">Large</text>
 </g>
 <g id="Guides">
  <g id="H-reference" style="fill:#27AAE1;stroke:none;" transform="matrix(1 0 0 1 339 696)">
   <path d="M0.993654 0L3.63775 0L29.3281-67.1323L30.0303-67.1323L30.0303-70.459L28.1226-70.459ZM11.6885-24.4799L46.9815-24.4799L46.2315-26.7285L12.4385-26.7285ZM55.1196 0L57.7637 0L30.6382-70.459L29.4326-70.459L29.4326-67.1323Z"/>
  </g>
  <line id="Baseline-S" style="fill:none;stroke:#27AAE1;opacity:1;stroke-width:0.5;" x1="263" x2="3036" y1="696" y2="696"/>
  <line id="Capline-S" style="fill:none;stroke:#27AAE1;opacity:1;stroke-width:0.5;" x1="263" x2="3036" y1="625.541" y2="625.541"/>
  <g id="H-reference" style="fill:#27AAE1;stroke:none;" transform="matrix(1 0 0 1 339 1126)">
   <path d="M0.993654 0L3.63775 0L29.3281-67.1323L30.0303-67.1323L30.0303-70.459L28.1226-70.459ZM11.6885-24.4799L46.9815-24.4799L46.2315-26.7285L12.4385-26.7285ZM55.1196 0L57.7637 0L30.6382-70.459L29.4326-70.459L29.4326-67.1323Z"/>
  </g>
  <line id="Baseline-M" style="fill:none;stroke:#27AAE1;opacity:1;stroke-width:0.5;" x1="263" x2="3036" y1="1126" y2="1126"/>
  <line id="Capline-M" style="fill:none;stroke:#27AAE1;opacity:1;stroke-width:0.5;" x1="263" x2="3036" y1="1055.54" y2="1055.54"/>
  <g id="H-reference" style="fill:#27AAE1;stroke:none;" transform="matrix(1 0 0 1 339 1556)">
   <path d="M0.993654 0L3.63775 0L29.3281-67.1323L30.0303-67.1323L30.0303-70.459L28.1226-70.459ZM11.6885-24.4799L46.9815-24.4799L46.2315-26.7285L12.4385-26.7285ZM55.1196 0L57.7637 0L30.6382-70.459L29.4326-70.459L29.4326-67.1323Z"/>
  </g>
  <line id="Baseline-L" style="fill:none;stroke:#27AAE1;opacity:1;stroke-width:0.5;" x1="263" x2="3036" y1="1556" y2="1556"/>
  <line id="Capline-L" style="fill:none;stroke:#27AAE1;opacity:1;stroke-width:0.5;" x1="263" x2="3036" y1="1485.54" y2="1485.54"/>
  <line id="left-margin-Regular-M" style="fill:none;stroke:#00AEEF;stroke-width:0.5;opacity:1.0;" x1="1388.71" x2="1388.71" y1="1030.79" y2="1150.12"/>
  <line id="right-margin-Regular-M" style="fill:none;stroke:#00AEEF;stroke-width:0.5;opacity:1.0;" x1="1510.98" x2="1510.98" y1="1030.79" y2="1150.12"/>
 </g>
 <g id="Symbols">
  <g id="Black-L" transform="matrix(1 0 0 1 2852.02 1556)">
   <path d="M33.2041 28.2344L129.608 28.2344C141.621 28.2344 149.887 18.7102 149.887 7.84506C149.887 4.46427 149.063 0.981042 147.221-2.2425L98.9414-86.613C94.9733-93.4747 88.3076-96.8256 81.4068-96.8256C74.5047-96.8256 67.643-93.3579 63.8125-86.613L15.533-2.18409C13.7286 1.00186 12.8672 4.46427 12.8672 7.84506C12.8672 18.7102 21.1331 28.2344 33.2041 28.2344ZM81.4652-18.6202C76.2856-18.6202 73.2221-21.4537 72.9092-26.5785L71.7981-49.6853C71.4853-55.2994 75.4382-59.0366 81.3859-59.0366C87.3116-59.0366 91.3062-55.2785 90.9933-49.6645L89.8406-26.6953C89.529-21.4329 86.5435-18.6202 81.4652-18.6202ZM81.4652 5.21398C75.6975 5.21398 71.348 1.89952 71.348-3.57255C71.348-8.98861 75.6767-12.3215 81.4652-12.3215C87.2317-12.3215 91.4447-8.9302 91.4447-3.57255C91.4447 1.92033 87.2317 5.21398 81.4652 5.21398Z"/>
  </g>
  <g id="Heavy-L" transform="matrix(1 0 0 1 2555.93 1556)">
   <path d="M32.374 27.2694L129.192 27.2694C140.843 27.2694 148.654 18.2647 148.654 7.74605C148.654 4.47499 147.825 1.08772 146.039-2.03934L97.5631-86.7169C93.7764-93.2697 87.3877-96.4947 80.7858-96.4947C74.1783-96.4947 67.6255-93.1804 63.9582-86.7169L15.4828-1.99472C13.7104 1.1179 12.8672 4.47499 12.8672 7.74605C12.8672 18.2647 20.6781 27.2694 32.374 27.2694ZM80.8304-18.4356C76.1505-18.4356 73.3964-21.028 73.1432-25.6801L72.1137-51.4329C71.8604-56.4778 75.4272-59.856 80.7556-59.856C86.0482-59.856 89.6754-56.4476 89.4221-51.4027L88.3323-25.7693C88.0846-20.9978 85.3997-18.4356 80.8304-18.4356ZM80.8304 4.67278C75.564 4.67278 71.4998 1.45654 71.4998-3.56988C71.4998-8.56291 75.5339-11.7981 80.8304-11.7981C86.0912-11.7981 90.0416-8.51828 90.0416-3.56988C90.0416 1.48673 86.0912 4.67278 80.8304 4.67278Z"/>
  </g>
  <g id="Bold-L" transform="matrix(1 0 0 1 2259.97 1556)">
   <path d="M31.2848 26.123L128.767 26.123C139.92 26.123 147.155 17.7637 147.155 7.74235C147.155 4.60208 146.326 1.33017 144.601-1.68895L95.8125-86.9295C92.2636-93.0832 86.2355-96.1247 80.0323-96.1247C73.8158-96.1247 67.6621-93.0248 64.2096-86.9295L15.4214-1.65974C13.6874 1.36816 12.8672 4.60208 12.8672 7.74235C12.8672 17.7637 20.1022 26.123 31.2848 26.123ZM80.0615-18.2424C76.0263-18.2424 73.6638-20.5277 73.4798-24.5734L72.5577-53.2942C72.3737-57.6247 75.4417-60.5424 79.9943-60.5424C84.4956-60.5424 87.6396-57.5868 87.4556-53.2562L86.4576-24.6318C86.2868-20.4897 83.9783-18.2424 80.0615-18.2424ZM80.0615 3.91479C75.4175 3.91479 71.7365 0.851269 71.7365-3.60704C71.7365-8.06261 75.3795-11.1377 80.0615-11.1377C84.6923-11.1377 88.2901-8.03341 88.2901-3.60704C88.2901 0.889256 84.6923 3.91479 80.0615 3.91479Z"/>
  </g>
  <g id="Semibold-L" transform="matrix(1 0 0 1 1963.77 1556)">
   <path d="M30.5339 25.3326L128.473 25.3326C139.283 25.3326 146.121 17.4183 146.121 7.7398C146.121 4.68969 145.292 1.49732 143.61-1.44739L94.6057-87.076C91.2207-92.9546 85.4412-95.8696 79.5128-95.8696C73.5659-95.8696 67.6873-92.9174 64.3829-87.076L15.379-1.42882C13.6715 1.54069 12.8672 4.68969 12.8672 7.7398C12.8672 17.4183 19.7052 25.3326 30.5339 25.3326ZM79.5314-18.1092C75.9406-18.1092 73.8481-20.1828 73.7119-23.8105L72.8638-54.5773C72.7276-58.4154 75.4517-61.0156 79.4695-61.0156C83.4253-61.0156 86.2362-58.3721 86.1-54.534L85.1652-23.8476C85.0474-20.1394 82.9984-18.1092 79.5314-18.1092ZM79.5314 3.39224C75.3164 3.39224 71.8996 0.433998 71.8996-3.63266C71.8996-7.71771 75.2731-10.6824 79.5314-10.6824C83.7279-10.6824 87.0826-7.69914 87.0826-3.63266C87.0826 0.477363 83.7279 3.39224 79.5314 3.39224Z"/>
  </g>
  <g id="Medium-L" transform="matrix(1 0 0 1 1667.45 1556)">
   <path d="M29.9645 24.7334L128.251 24.7334C138.801 24.7334 145.338 17.1564 145.338 7.73787C145.338 4.75613 144.509 1.62406 142.858-1.26423L93.6906-87.1871C90.43-92.8571 84.8389-95.6761 79.1189-95.6761C73.3765-95.6761 67.7065-92.8361 64.5143-87.1871L15.3468-1.25372C13.6594 1.6715 12.8672 4.75613 12.8672 7.73787C12.8672 17.1564 19.4041 24.7334 29.9645 24.7334ZM79.1294-18.0082C75.8756-18.0082 73.9878-19.9213 73.8878-23.232L73.0959-55.5503C72.9959-59.015 75.4593-61.3744 79.0715-61.3744C82.6138-61.3744 85.172-58.9675 85.072-55.5028L84.1852-23.253C84.1077-19.8738 82.2554-18.0082 79.1294-18.0082ZM79.1294 2.99602C75.2398 2.99602 72.0233 0.117605 72.0233-3.65209C72.0233-7.45619 75.1924-10.3371 79.1294-10.3371C82.9966-10.3371 86.1671-7.44568 86.1671-3.65209C86.1671 0.165049 82.9966 2.99602 79.1294 2.99602Z"/>
  </g>
  <g id="Regular-L" transform="matrix(1 0 0 1 1371.25 1556)">
   <path d="M29.2218 23.9517L127.961 23.9517C138.171 23.9517 144.316 16.8148 144.316 7.73534C144.316 4.84278 143.486 1.78937 141.878-1.02533L92.497-87.332C89.3985-92.7299 84.0533-95.4238 78.6052-95.4238C73.1294-95.4238 67.7314-92.7299 64.6857-87.332L15.3049-1.02533C13.6437 1.84213 12.8672 4.84278 12.8672 7.73534C12.8672 16.8148 19.0115 23.9517 29.2218 23.9517ZM78.6052-17.8764C75.7909-17.8764 74.1701-19.5802 74.1174-22.4774L73.3987-56.8193C73.3459-59.797 75.4692-61.8424 78.5524-61.8424C81.5552-61.8424 83.784-59.7442 83.7313-56.7665L82.9071-22.4774C82.8819-19.5274 81.2863-17.8764 78.6052-17.8764ZM78.6052 2.47921C75.1399 2.47921 72.1847-0.295081 72.1847-3.67742C72.1847-7.11508 75.0871-9.88682 78.6052-9.88682C82.0428-9.88682 84.9729-7.11508 84.9729-3.67742C84.9729-0.242317 82.0428 2.47921 78.6052 2.47921Z"/>
  </g>
  <g id="Light-L" transform="matrix(1 0 0 1 1074.97 1556)">
   <path d="M28.0767 23.4746L128.247 23.4746C137.79 23.4746 143.457 16.7957 143.457 8.49876C143.457 5.66344 142.666 2.66729 141.057-0.147405L91.0084-88.0191C88.158-93.0353 83.1754-95.4238 78.1853-95.4238C73.1485-95.4238 68.1322-93.0353 65.3155-88.0191L15.2667-0.147405C13.6246 2.70097 12.8672 5.66344 12.8672 8.49876C12.8672 16.7957 18.5343 23.4746 28.0767 23.4746ZM78.1853-17.9719C75.9817-17.9719 74.6854-19.4084 74.6517-21.7522L74.0476-56.1513C74.0139-58.5755 75.66-60.2011 78.1516-60.2011C80.5628-60.2011 82.2763-58.5419 82.2426-56.1176L81.5711-21.7522C81.5841-19.3747 80.2748-17.9719 78.1853-17.9719ZM78.1853 1.39135C75.1589 1.39135 72.6619-1.07758 72.6619-3.9637C72.6619-6.94331 75.1253-9.35243 78.1853-9.35243C81.1649-9.35243 83.6751-6.94331 83.6751-3.9637C83.6751-1.0439 81.1649 1.39135 78.1853 1.39135Z"/>
  </g>
  <g id="Thin-L" transform="matrix(1 0 0 1 778.828 1556)">
   <path d="M26.5622 22.8435L128.626 22.8435C137.285 22.8435 142.321 16.7704 142.321 9.50843C142.321 6.74884 141.58 3.82842 139.972 1.01372L89.0395-88.9278C86.5172-93.4392 82.0143-95.4238 77.63-95.4238C73.1737-95.4238 68.6623-93.4392 66.1485-88.9278L15.2162 1.01372C13.5994 3.83685 12.8672 6.74884 12.8672 9.50843C12.8672 16.7704 17.9033 22.8435 26.5622 22.8435ZM77.63-18.0981C76.2341-18.0981 75.367-19.1812 75.3585-20.793L74.9058-55.2678C74.8974-56.9601 75.9125-58.0303 77.6215-58.0303C79.2502-58.0303 80.2822-56.9516 80.2737-55.2594L79.8042-20.793C79.8677-19.1728 78.937-18.0981 77.63-18.0981ZM77.63-0.047435C75.1842-0.047435 73.2929-2.11249 73.2929-4.34233C73.2929-6.71614 75.1758-8.64566 77.63-8.64566C80.0038-8.64566 81.9586-6.71614 81.9586-4.34233C81.9586-2.10406 80.0038-0.047435 77.63-0.047435Z"/>
  </g>
  <g id="Ultralight-L" transform="matrix(1 0 0 1 482.408 1556)">
   <path d="M25.7865 22.5203L128.82 22.5203C137.026 22.5203 141.739 16.7575 141.739 10.0256C141.739 7.30478 141.024 4.42314 139.416 1.60844L88.0311-89.3932C85.6769-93.646 81.4196-95.4238 77.3455-95.4238C73.1866-95.4238 68.9338-93.646 66.5751-89.3932L15.1904 1.60844C13.5865 4.41865 12.8672 7.30478 12.8672 10.0256C12.8672 16.7575 17.5801 22.5203 25.7865 22.5203ZM77.3455-18.1627C76.3634-18.1627 75.716-19.0649 75.7205-20.3017L75.3454-54.8153C75.3499-56.1326 76.0418-56.9184 77.35-56.9184C78.5779-56.9184 79.2608-56.1371 79.2653-54.8198L78.8991-20.3017C78.9885-19.0694 78.2517-18.1627 77.3455-18.1627ZM77.3455-0.784373C75.1971-0.784373 73.6161-2.64257 73.6161-4.53626C73.6161-6.59978 75.2016-8.28366 77.3455-8.28366C79.4091-8.28366 81.0795-6.59978 81.0795-4.53626C81.0795-2.64706 79.4091-0.784373 77.3455-0.784373Z"/>
  </g>
  <g id="Black-M" transform="matrix(1 0 0 1 2869.88 1126)">
   <path d="M26.2829 14.7034L100.809 14.7034C110.336 14.7034 117.066 6.94016 117.066-1.6693C117.066-4.37509 116.438-7.1484 114.963-9.72874L77.6369-75.0423C74.4403-80.5721 69.0873-83.2349 63.546-83.2349C58.005-83.2349 52.4752-80.4579 49.3983-75.0423L12.0721-9.67165C10.6492-7.14291 9.96875-4.37509 9.96875-1.6693C9.96875 6.94016 16.6991 14.7034 26.2829 14.7034ZM63.6031-22.5333C59.2435-22.5333 56.6482-24.8994 56.3572-29.201L55.4417-44.8366C55.1508-49.6002 58.4804-52.7473 63.5405-52.7473C68.5954-52.7473 71.936-49.5947 71.6451-44.8311L70.7186-29.3152C70.4274-24.8939 67.8949-22.5333 63.6031-22.5333ZM63.6031-3.57849C58.7633-3.57849 55.2105-6.1894 55.2105-10.7446C55.2105-15.2422 58.7578-17.8591 63.6031-17.8591C68.4432-17.8591 71.876-15.1851 71.876-10.7446C71.876-6.18391 68.4432-3.57849 63.6031-3.57849Z"/>
  </g>
  <g id="Heavy-M" transform="matrix(1 0 0 1 2573.73 1126)">
   <path d="M25.5771 13.804L100.376 13.804C109.611 13.804 115.941 6.50641 115.941-1.83652C115.941-4.44032 115.304-7.12511 113.883-9.61113L76.4269-75.0805C73.3847-80.3435 68.269-82.9115 62.9777-82.9115C57.6842-82.9115 52.4211-80.2562 49.4827-75.0805L12.0265-9.56751C10.6331-7.1087 9.96875-4.44032 9.96875-1.83652C9.96875 6.50641 16.2983 13.804 25.5771 13.804ZM63.0213-22.3439C59.0939-22.3439 56.7711-24.4991 56.5366-28.3897L55.6904-46.6066C55.4559-50.8649 58.4521-53.6997 62.9613-53.6997C67.4518-53.6997 70.4809-50.8485 70.2464-46.5902L69.3674-28.4769C69.1351-24.4827 66.87-22.3439 63.0213-22.3439ZM63.0213-4.0072C58.6311-4.0072 55.3148-6.55025 55.3148-10.7156C55.3148-14.8419 58.6147-17.3968 63.0213-17.3968C67.4093-17.3968 70.6242-14.7982 70.6242-10.7156C70.6242-6.53385 67.4093-4.0072 63.0213-4.0072Z"/>
  </g>
  <g id="Bold-M" transform="matrix(1 0 0 1 2277.65 1126)">
   <path d="M24.7874 12.798L99.8914 12.798C108.8 12.798 114.682 6.0212 114.682-2.02358C114.682-4.51329 114.035-7.09906 112.675-9.47956L75.0733-75.1231C72.204-80.0878 67.3536-82.5497 62.342-82.5497C57.3253-82.5497 52.3606-80.0307 49.577-75.1231L11.9756-9.45101C10.6152-7.07044 9.96875-4.51329 9.96875-2.02358C9.96875 6.0212 15.85 12.798 24.7874 12.798ZM62.3705-22.1321C58.9266-22.1321 56.9086-24.0513 56.7372-27.4821L55.9685-48.5866C55.7971-52.2796 58.4204-54.7651 62.3134-54.7651C66.1726-54.7651 68.8531-52.251 68.6817-48.558L67.8558-27.5392C67.6895-24.0227 65.7236-22.1321 62.3705-22.1321ZM62.3705-4.48678C58.4832-4.48678 55.4316-6.95392 55.4316-10.6831C55.4316-14.3941 58.4546-16.8796 62.3705-16.8796C66.2528-16.8796 69.2238-14.3655 69.2238-10.6831C69.2238-6.9253 66.2528-4.48678 62.3705-4.48678Z"/>
  </g>
  <g id="Semibold-M" transform="matrix(1 0 0 1 1981.38 1126)">
   <path d="M24.2431 12.1044L99.5573 12.1044C108.241 12.1044 113.813 5.6867 113.813-2.15254C113.813-4.56359 113.16-7.0811 111.842-9.38886L74.1401-75.1526C71.39-79.9115 66.7226-82.3003 61.9037-82.3003C57.0778-82.3003 52.3189-79.8752 49.6421-75.1526L11.9405-9.3707C10.6028-7.04405 9.96875-4.56359 9.96875-2.15254C9.96875 5.6867 15.5409 12.1044 24.2431 12.1044ZM61.9219-21.9861C58.8112-21.9861 57.0034-23.7426 56.8756-26.8564L56.1602-49.9516C56.0324-53.2549 58.3986-55.4996 61.8667-55.4996C65.2907-55.4996 67.7309-53.2179 67.6031-49.9146L66.8137-26.8928C66.6929-23.7055 64.9333-21.9861 61.9219-21.9861ZM61.9219-4.81739C58.3813-4.81739 55.512-7.2322 55.512-10.6607C55.512-14.0854 58.3442-16.523 61.9219-16.523C65.4554-16.523 68.2584-14.0672 68.2584-10.6607C68.2584-7.19516 65.4554-4.81739 61.9219-4.81739Z"/>
  </g>
  <g id="Medium-M" transform="matrix(1 0 0 1 1684.99 1126)">
   <path d="M23.8303 11.5785L99.304 11.5785C107.817 11.5785 113.155 5.43307 113.155-2.25032C113.155-4.60173 112.497-7.06748 111.21-9.32008L73.4325-75.1749C70.7728-79.7778 66.2441-82.1112 61.5714-82.1112C56.8902-82.1112 52.2873-79.7573 49.6914-75.1749L11.9138-9.3098C10.5935-7.02405 9.96875-4.60173 9.96875-2.25032C9.96875 5.43307 15.3066 11.5785 23.8303 11.5785ZM61.5817-21.8754C58.7237-21.8754 57.0753-23.5085 56.9805-26.382L56.3056-50.9867C56.2108-53.9944 58.382-56.0565 61.528-56.0565C64.622-56.0565 66.88-53.951 66.7852-50.9432L66.0235-26.4026C65.9373-23.4651 64.334-21.8754 61.5817-21.8754ZM61.5817-5.06808C58.304-5.06808 55.5731-7.44321 55.5731-10.6438C55.5731-13.8513 58.2605-16.2526 61.5817-16.2526C64.8509-16.2526 67.5264-13.841 67.5264-10.6438C67.5264-7.39978 64.8509-5.06808 61.5817-5.06808Z"/>
  </g>
  <g id="Regular-M" transform="matrix(1 0 0 1 1388.71 1126)">
   <path d="M23.2919 10.8926L98.9735 10.8926C107.265 10.8926 112.297 5.10224 112.297-2.37786C112.297-4.65148 111.632-7.04971 110.386-9.23037L72.5096-75.204C69.9677-79.6035 65.6199-81.8646 61.138-81.8646C56.6455-81.8646 52.246-79.6035 49.7558-75.204L11.8791-9.23037C10.5812-6.99796 9.96875-4.65148 9.96875-2.37786C9.96875 5.10224 15.0009 10.8926 23.2919 10.8926ZM61.138-21.731C58.6096-21.731 57.1691-23.2032 57.1173-25.7632L56.4953-52.3367C56.4435-54.959 58.3604-56.7829 61.0862-56.7829C63.7498-56.7829 65.7702-54.9073 65.7184-52.2849L64.9929-25.7632C64.9517-23.1514 63.5523-21.731 61.138-21.731ZM61.138-5.39506C58.2031-5.39506 55.6526-7.71843 55.6526-10.6216C55.6526-13.546 58.1514-15.9 61.138-15.9C64.0623-15.9 66.5716-13.546 66.5716-10.6216C66.5716-7.66668 64.0623-5.39506 61.138-5.39506Z"/>
  </g>
  <g id="Light-M" transform="matrix(1 0 0 1 1092.39 1126)">
   <path d="M22.2653 10.4648L99.2302 10.4648C106.922 10.4648 111.527 5.08513 111.527-1.69342C111.527-3.91571 110.897-6.26261 109.651-8.44327L71.175-75.82C68.8555-79.8773 64.8328-81.8646 60.7616-81.8646C56.6626-81.8646 52.6053-79.8773 50.3205-75.82L11.8449-8.44327C10.5641-6.22796 9.96875-3.91571 9.96875-1.69342C9.96875 5.08513 14.5731 10.4648 22.2653 10.4648ZM60.7616-21.8165C58.7807-21.8165 57.6311-23.0492 57.5964-25.113L57.077-51.7378C57.0424-53.8639 58.5315-55.3114 60.7269-55.3114C62.86-55.3114 64.4184-53.8293 64.3838-51.7031L63.7951-25.113C63.7881-23.0145 62.6454-21.8165 60.7616-21.8165ZM60.7616-6.37038C58.2202-6.37038 56.0804-8.41998 56.0804-10.8783C56.0804-13.392 58.1856-15.4209 60.7616-15.4209C63.2752-15.4209 65.408-13.392 65.408-10.8783C65.408-8.38534 63.2752-6.37038 60.7616-6.37038Z"/>
  </g>
  <g id="Thin-M" transform="matrix(1 0 0 1 796.184 1126)">
   <path d="M20.9074 9.89903L99.5696 9.89903C106.47 9.89903 110.508 5.0625 110.508-0.788199C110.508-2.9426 109.924-5.2216 108.677-7.40226L69.4098-76.6347C67.3845-80.2393 63.7918-81.8646 60.2637-81.8646C56.6853-81.8646 53.0806-80.2393 51.0673-76.6347L11.7996-7.40226C10.5415-5.20959 9.96875-2.9426 9.96875-0.788199C9.96875 5.0625 14.0073 9.89903 20.9074 9.89903ZM60.2637-21.9297C59.007-21.9297 58.2421-22.8455 58.2301-24.253L57.8465-50.9457C57.8345-52.4156 58.7578-53.3652 60.2517-53.3652C61.6832-53.3652 62.6306-52.4035 62.6186-50.9337L62.211-24.253C62.2492-22.8335 61.446-21.9297 60.2637-21.9297ZM60.2637-7.66033C58.2429-7.66033 56.6462-9.34784 56.6462-11.2178C56.6462-13.1883 58.2309-14.7872 60.2637-14.7872C62.2342-14.7872 63.8692-13.1883 63.8692-11.2178C63.8692-9.33582 62.2342-7.66033 60.2637-7.66033Z"/>
  </g>
  <g id="Ultralight-M" transform="matrix(1 0 0 1 499.733 1126)">
   <path d="M20.212 9.60925L99.7435 9.60925C106.238 9.60925 109.987 5.05091 109.987-0.324548C109.987-2.44417 109.425-4.6884 108.179-6.86907L68.5057-77.0519C66.6311-80.4248 63.2586-81.8646 60.0087-81.8646C56.6968-81.8646 53.324-80.4248 51.4498-77.0519L11.7764-6.86907C10.5299-4.68798 9.96875-2.44417 9.96875-0.324548C9.96875 5.05091 13.7176 9.60925 20.212 9.60925ZM60.0087-21.9876C59.1229-21.9876 58.555-22.7412 58.5546-23.8126L58.2406-50.54C58.2402-51.6737 58.8737-52.3683 60.0083-52.3683C61.0805-52.3683 61.7149-51.6733 61.7145-50.5396L61.3996-23.8126C61.461-22.7408 60.8317-21.9876 60.0087-21.9876ZM60.0087-8.32103C58.2545-8.32103 56.936-9.82308 56.936-11.3916C56.936-13.084 58.254-14.4627 60.0087-14.4627C61.701-14.4627 63.081-13.084 63.081-11.3916C63.081-9.82266 61.701-8.32103 60.0087-8.32103Z"/>
  </g>
  <g id="Black-S" transform="matrix(1 0 0 1 2883.47 696)">
   <path d="M20.752 4.15039L79.1504 4.15039C86.6699 4.15039 92.041-2.05078 92.041-8.83789C92.041-10.9863 91.5527-13.1836 90.3809-15.2344L61.1328-66.4551C58.5938-70.8496 54.3457-72.9492 49.9512-72.9492C45.5566-72.9492 41.1621-70.752 38.7207-66.4551L9.47266-15.1855C8.34961-13.1836 7.8125-10.9863 7.8125-8.83789C7.8125-2.05078 13.1836 4.15039 20.752 4.15039ZM50-25.3418C46.4844-25.3418 44.3848-27.2461 44.1406-30.7129L43.4082-42.1875C43.1641-46.0449 45.8496-48.584 49.9512-48.584C54.0527-48.584 56.7383-46.0449 56.4941-42.1875L55.7617-30.8105C55.5176-27.2461 53.4668-25.3418 50-25.3418ZM50-10.3516C46.0938-10.3516 43.2617-12.4023 43.2617-16.0645C43.2617-19.6777 46.0938-21.7285 50-21.7285C53.9062-21.7285 56.6406-19.6289 56.6406-16.0645C56.6406-12.4023 53.9062-10.3516 50-10.3516Z"/>
  </g>
  <g id="Heavy-S" transform="matrix(1 0 0 1 2587.19 696)">
   <path d="M20.2795 3.43587L78.747 3.43587C86.0937 3.43587 91.1767-2.41956 91.1767-9.06838C91.1767-11.1361 90.6769-13.2643 89.5511-15.2344L60.2685-66.409C57.8331-70.6191 53.7464-72.6726 49.5132-72.6726C45.2801-72.6726 41.0699-70.5445 38.7207-66.409L9.43808-15.1971C8.33808-13.2527 7.8125-11.1361 7.8125-9.06838C7.8125-2.41956 12.8955 3.43587 20.2795 3.43587ZM49.5505-25.1689C46.3346-25.1689 44.4309-26.9234 44.2328-30.1021L43.5465-43.7779C43.3485-47.2665 45.8035-49.5866 49.5017-49.5866C53.1884-49.5866 55.6665-47.255 55.4685-43.7664L54.7591-30.1767C54.561-26.9119 52.7062-25.1689 49.5505-25.1689ZM49.5505-10.5936C45.9785-10.5936 43.2963-12.6213 43.2963-16.0068C43.2963-19.355 45.967-21.3943 49.5505-21.3943C53.1226-21.3943 55.7187-19.3177 55.7187-16.0068C55.7187-12.6098 53.1226-10.5936 49.5505-10.5936Z"/>
  </g>
  <g id="Bold-S" transform="matrix(1 0 0 1 2290.97 696)">
   <path d="M19.751 2.63672L78.2959 2.63672C85.4492 2.63672 90.21-2.83203 90.21-9.32617C90.21-11.3037 89.6973-13.3545 88.623-15.2344L59.3018-66.3574C56.9824-70.3613 53.0762-72.3633 49.0234-72.3633C44.9707-72.3633 40.9668-70.3125 38.7207-66.3574L9.39941-15.21C8.3252-13.3301 7.8125-11.3037 7.8125-9.32617C7.8125-2.83203 12.5732 2.63672 19.751 2.63672ZM49.0479-24.9756C46.167-24.9756 44.4824-26.5625 44.3359-29.4189L43.7012-45.5566C43.5547-48.6328 45.752-50.708 48.999-50.708C52.2217-50.708 54.4678-48.6084 54.3213-45.5322L53.6377-29.4678C53.4912-26.5381 51.8555-24.9756 49.0479-24.9756ZM49.0479-10.8643C45.8496-10.8643 43.335-12.8662 43.335-15.9424C43.335-18.9941 45.8252-21.0205 49.0479-21.0205C52.2461-21.0205 54.6875-18.9697 54.6875-15.9424C54.6875-12.8418 52.2461-10.8643 49.0479-10.8643Z"/>
  </g>
  <g id="Semibold-S" transform="matrix(1 0 0 1 1994.59 696)">
   <path d="M19.3866 2.08574L77.9849 2.08574C85.0049 2.08574 89.5435-3.11641 89.5435-9.50391C89.5435-11.4192 89.0219-13.4167 87.9832-15.2344L58.6353-66.3219C56.3959-70.1836 52.6141-72.15 48.6857-72.15C44.7574-72.15 40.8957-70.1525 38.7207-66.3219L9.37275-15.2188C8.31631-13.3834 7.8125-11.4192 7.8125-9.50391C7.8125-3.11641 12.3511 2.08574 19.3866 2.08574ZM48.7013-24.8423C46.0515-24.8423 44.518-26.3137 44.407-28.9479L43.8078-46.783C43.6969-49.5748 45.7164-51.4812 48.6524-51.4812C51.5552-51.4812 53.6413-49.5415 53.5304-46.7497L52.8646-28.979C52.7536-26.2804 51.2689-24.8423 48.7013-24.8423ZM48.7013-11.0509C45.7607-11.0509 43.3616-13.0351 43.3616-15.8979C43.3616-18.7453 45.7274-20.7628 48.7013-20.7628C51.6418-20.7628 53.9766-18.7298 53.9766-15.8979C53.9766-13.0018 51.6418-11.0509 48.7013-11.0509Z"/>
  </g>
  <g id="Medium-S" transform="matrix(1 0 0 1 1698.13 696)">
   <path d="M19.1104 1.66797L77.749 1.66797C84.668 1.66797 89.0381-3.33203 89.0381-9.63867C89.0381-11.5068 88.5098-13.4639 87.498-15.2344L58.1299-66.2949C55.9512-70.0488 52.2637-71.9883 48.4297-71.9883C44.5957-71.9883 40.8418-70.0312 38.7207-66.2949L9.35254-15.2256C8.30957-13.4238 7.8125-11.5068 7.8125-9.63867C7.8125-3.33203 12.1826 1.66797 19.1104 1.66797ZM48.4385-24.7412C45.9639-24.7412 44.5449-26.125 44.4609-28.5908L43.8887-47.7129C43.8047-50.2891 45.6895-52.0674 48.3896-52.0674C51.0498-52.0674 53.0146-50.249 52.9307-47.6729L52.2783-28.6084C52.1943-26.085 50.8242-24.7412 48.4385-24.7412ZM48.4385-11.1924C45.6934-11.1924 43.3818-13.1631 43.3818-15.8643C43.3818-18.5566 45.6533-20.5674 48.4385-20.5674C51.1836-20.5674 53.4375-18.5479 53.4375-15.8643C53.4375-13.123 51.1836-11.1924 48.4385-11.1924Z"/>
  </g>
  <g id="Regular-S" transform="matrix(1 0 0 1 1401.75 696)">
   <path d="M18.75 1.12305L77.4414 1.12305C84.2285 1.12305 88.3789-3.61328 88.3789-9.81445C88.3789-11.6211 87.8418-13.5254 86.8652-15.2344L57.4707-66.2598C55.3711-69.873 51.8066-71.7773 48.0957-71.7773C44.3848-71.7773 40.7715-69.873 38.7207-66.2598L9.32617-15.2344C8.30078-13.4766 7.8125-11.6211 7.8125-9.81445C7.8125-3.61328 11.9629 1.12305 18.75 1.12305ZM48.0957-24.6094C45.8496-24.6094 44.5801-25.8789 44.5312-28.125L43.9941-48.9258C43.9453-51.2207 45.6543-52.832 48.0469-52.832C50.3906-52.832 52.1973-51.1719 52.1484-48.877L51.5137-28.125C51.4648-25.8301 50.2441-24.6094 48.0957-24.6094ZM48.0957-11.377C45.6055-11.377 43.4082-13.3301 43.4082-15.8203C43.4082-18.3105 45.5566-20.3125 48.0957-20.3125C50.5859-20.3125 52.7344-18.3105 52.7344-15.8203C52.7344-13.2812 50.5859-11.377 48.0957-11.377Z"/>
  </g>
  <g id="Light-S" transform="matrix(1 0 0 1 1105.38 696)">
   <path d="M17.8418 0.744632L77.6685 0.744632C83.9258 0.744632 87.6978-3.62842 87.6978-9.20899C87.6978-10.9702 87.1909-12.8291 86.2144-14.5381L56.29-66.8047C54.3872-70.1152 51.1104-71.7773 47.7627-71.7773C44.3999-71.7773 41.0894-70.1152 39.2202-66.8047L9.2959-14.5381C8.28564-12.7954 7.8125-10.9702 7.8125-9.20899C7.8125-3.62842 11.5845 0.744632 17.8418 0.744632ZM47.7627-24.6851C46.001-24.6851 44.9888-25.7427 44.9551-27.5498L44.5088-48.396C44.4751-50.252 45.8057-51.5303 47.729-51.5303C49.6035-51.5303 51.0015-50.2183 50.9678-48.3623L50.4541-27.5498C50.4356-25.709 49.4419-24.6851 47.7627-24.6851ZM47.7627-12.2397C45.6206-12.2397 43.7866-13.9507 43.7866-16.0474C43.7866-18.1743 45.5869-19.8887 47.7627-19.8887C49.8897-19.8887 51.7051-18.1743 51.7051-16.0474C51.7051-13.917 49.8897-12.2397 47.7627-12.2397Z"/>
  </g>
  <g id="Thin-S" transform="matrix(1 0 0 1 809.118 696)">
   <path d="M16.6406 0.244148L77.9687 0.244148C83.5254 0.244148 86.7969-3.64844 86.7969-8.40821C86.7969-10.1094 86.3301-11.9082 85.3535-13.6172L54.7285-67.5254C53.086-70.4355 50.1895-71.7773 47.3223-71.7773C44.4199-71.7773 41.5098-70.4355 39.8809-67.5254L9.25586-13.6172C8.26563-11.8945 7.8125-10.1094 7.8125-8.40821C7.8125-3.64844 11.084 0.244148 16.6406 0.244148ZM47.3223-24.7852C46.2012-24.7852 45.5293-25.5625 45.5156-26.7891L45.1894-47.6953C45.1758-48.9707 46.0059-49.8086 47.3086-49.8086C48.5625-49.8086 49.4199-48.957 49.4063-47.6817L49.0528-26.7891C49.0742-25.5488 48.3809-24.7852 47.3223-24.7852ZM47.3223-13.3808C45.6406-13.3808 44.2871-14.7715 44.2871-16.3477C44.2871-17.9941 45.627-19.3281 47.3223-19.3281C48.9688-19.3281 50.3438-17.9941 50.3438-16.3477C50.3438-14.7578 48.9688-13.3808 47.3223-13.3808Z"/>
  </g>
  <g id="Ultralight-S" transform="matrix(1 0 0 1 512.637 696)">
   <path d="M16.0254-0.0121981L78.1226-0.0121981C83.3203-0.0121981 86.3355-3.65869 86.3355-7.99806C86.3355-9.66847 85.8892-11.4365 84.9126-13.1455L53.9287-67.8945C52.4195-70.5996 49.7178-71.7773 47.0967-71.7773C44.4302-71.7773 41.7251-70.5996 40.2192-67.8945L9.23535-13.1455C8.25537-11.4331 7.8125-9.66847 7.8125-7.99806C7.8125-3.65869 10.8276-0.0121981 16.0254-0.0121981ZM47.0967-24.8364C46.3037-24.8364 45.8061-25.4702 45.8027-26.3994L45.5381-47.3364C45.5347-48.3145 46.1084-48.9268 47.0933-48.9268C48.0293-48.9268 48.6099-48.3111 48.6065-47.333L48.335-26.3994C48.377-25.4668 47.8374-24.8364 47.0967-24.8364ZM47.0967-13.9653C45.6509-13.9653 44.5434-15.1919 44.5434-16.5015C44.5434-17.9019 45.6475-19.041 47.0967-19.041C48.4971-19.041 49.6465-17.9019 49.6465-16.5015C49.6465-15.1885 48.4971-13.9653 47.0967-13.9653Z"/>
  </g>
 </g>
</svg>
